<svg width="106" height="16" viewBox="0 0 106 16" fill="none" xmlns="http://www.w3.org/2000/svg">
<path fill-rule="evenodd" clip-rule="evenodd" d="M2.69492 3.66506C2.69492 4.55439 3.35068 5.38981 4.67119 6.1893C5.91085 6.87201 7.15051 7.55473 8.38119 8.2554C9.71966 9.18964 10.3844 10.2766 10.3844 11.5252C10.3844 12.7739 9.86339 13.6632 8.82136 14.3549C7.90509 14.9657 6.75525 15.2712 5.38983 15.2712C4.99458 15.2712 4.41966 15.1544 3.66509 14.9208C2.91051 14.6873 2.34458 14.5705 1.95831 14.5705C1.46424 14.5705 1.23068 14.7951 1.24864 15.2622H0.691695L0 10.8246H0.574915C1.66186 13.3129 3.22492 14.5525 5.2461 14.5525C6.04559 14.5525 6.70136 14.3369 7.22237 13.8968C7.74339 13.4566 8.0039 12.8817 8.0039 12.154C8.0039 11.1929 7.3661 10.3395 6.09051 9.56693C4.92271 8.90218 3.74593 8.23744 2.56915 7.59066C1.32051 6.69235 0.691695 5.64134 0.691695 4.41964C0.691695 3.36862 1.09593 2.51523 1.91339 1.86845C2.73085 1.22167 3.72797 0.898285 4.93169 0.898285C6.51271 0.898285 7.68051 1.06896 8.4261 1.4193C9.40526 1.85947 9.89932 2.641 9.89932 3.7549C9.89932 4.06032 9.76458 4.32981 9.49509 4.56337C9.22559 4.79693 8.92915 4.91371 8.60576 4.91371C7.95898 4.91371 7.55475 4.63523 7.38407 4.07828C7.25831 3.56625 7.13254 3.05422 6.98881 2.5332C6.71034 1.96727 6.12644 1.67981 5.23712 1.67981C4.54542 1.67981 3.94356 1.85947 3.44051 2.20981C2.93746 2.56015 2.67695 3.04523 2.67695 3.65608" fill="white"/>
<path fill-rule="evenodd" clip-rule="evenodd" d="M16.2955 4.88678C16.6009 4.88678 17.0411 4.97661 17.616 5.16525C18.1909 5.34492 18.6311 5.44373 18.9365 5.44373C19.2689 5.44373 19.4844 5.26407 19.5833 4.89576H19.9516L19.9336 8.26441H19.5653C19.3767 7.5278 19.0083 6.92593 18.4514 6.44983C17.8944 5.97373 17.2477 5.73119 16.5111 5.73119C15.469 5.73119 14.6605 6.07254 14.0677 6.74627C13.4748 7.42 13.1783 8.30034 13.1783 9.36932C13.1783 10.4383 13.4748 11.4354 14.0677 12.2978C14.7144 13.25 15.5589 13.7261 16.6009 13.7261C17.9124 13.7261 19.0263 12.9446 19.9336 11.3905L20.3019 11.5702C19.9156 12.6571 19.3677 13.5285 18.676 14.1753C17.8855 14.9119 16.9602 15.2802 15.9092 15.2802C14.5707 15.2802 13.4838 14.7861 12.6663 13.8069C11.9028 12.8817 11.5165 11.7139 11.5165 10.3036C11.5165 8.82136 11.9387 7.56373 12.7921 6.53068C13.6904 5.44373 14.8582 4.89576 16.2955 4.89576" fill="white"/>
<path fill-rule="evenodd" clip-rule="evenodd" d="M23.0864 10.0071L27.6768 8.74949C27.4971 7.72542 27.3264 7.04271 27.1468 6.70136C26.8054 6.02763 26.2574 5.68627 25.4759 5.68627C24.6225 5.68627 23.9847 6.02763 23.5445 6.71932C23.1762 7.29424 22.9966 8.03085 22.9966 8.92017C22.9966 9.28847 23.0235 9.6478 23.0864 9.99814M29.8057 8.92017L23.2391 10.7976C23.7512 12.7559 24.8291 13.7261 26.464 13.7261C27.7935 13.7261 28.9254 12.9446 29.8417 11.3905L30.219 11.5702C29.8237 12.6571 29.2398 13.5285 28.4583 14.1932C27.6049 14.9119 26.6347 15.2712 25.5388 15.2712C24.2093 15.2712 23.1673 14.7681 22.4217 13.7531C21.7659 12.8547 21.4335 11.7139 21.4335 10.3125C21.4335 8.80339 21.8108 7.54576 22.5744 6.53966C23.4188 5.43475 24.5776 4.88678 26.0418 4.88678C27.2007 4.88678 28.1079 5.27305 28.7637 6.05458C29.3656 6.75525 29.7069 7.71644 29.7968 8.92017" fill="white"/>
<path fill-rule="evenodd" clip-rule="evenodd" d="M31.3599 5.92881C32.0516 5.74915 33.0846 5.4078 34.4501 4.91373L34.495 4.98559V6.80915C35.6179 5.53356 36.6779 4.88678 37.6929 4.88678C38.4475 4.88678 39.0763 5.14729 39.5884 5.66831C40.1004 6.18932 40.3609 6.82712 40.3609 7.59966V13.6722C40.3609 14.4986 40.819 14.9208 41.7263 14.9388V15.2802H38.4834V7.86915C38.4834 7.42 38.3307 7.02475 38.0163 6.69237C37.7109 6.36 37.3426 6.19831 36.9114 6.19831C36.3185 6.19831 35.8065 6.35102 35.3663 6.64746C34.8363 6.97983 34.5668 7.42898 34.5668 8.0039V13.762C34.5668 14.2112 34.7465 14.5256 35.0968 14.6873C35.3304 14.8041 35.7077 14.8759 36.2197 14.8939V15.2802H32.6894V7.28525C32.6894 6.57559 32.357 6.22525 31.6923 6.22525C31.5755 6.22525 31.4587 6.24322 31.3419 6.27017V5.92881H31.3599Z" fill="white"/>
<path fill-rule="evenodd" clip-rule="evenodd" d="M43.999 4.11422L45.7956 4.09625V6.57557H47.9336V7.19541H45.7956V12.8278C45.7956 13.7979 46.1549 14.283 46.8736 14.283C47.3137 14.283 47.7359 14.0585 48.1402 13.6003L48.4546 13.8249C47.8078 14.7861 46.9544 15.2622 45.9124 15.2622C45.2476 15.2622 44.7446 15.0286 44.4122 14.5615C44.1337 14.1752 43.99 13.6632 43.99 13.0254V7.19541H42.8671V6.57557H43.99V4.11422H43.999Z" fill="white"/>
<path fill-rule="evenodd" clip-rule="evenodd" d="M50.7363 5.57846C51.428 5.12033 52.2365 4.89575 53.1617 4.89575C54.042 4.89575 54.8236 5.09338 55.5153 5.48863C56.2968 5.95575 56.692 6.57558 56.692 7.34812C56.692 7.61762 56.5932 7.84219 56.3956 8.02185C56.198 8.2105 55.9554 8.30033 55.659 8.30033C55.3626 8.30033 55.12 8.20151 54.9044 8.01287C54.6888 7.82423 54.581 7.59965 54.581 7.34812C54.581 7.24931 54.599 7.0966 54.6439 6.90796C54.6798 6.71931 54.7068 6.5666 54.7068 6.46779C54.7068 6.12643 54.5092 5.85694 54.1049 5.65033C53.7815 5.48863 53.4132 5.40779 53 5.40779C52.488 5.40779 52.0478 5.54253 51.6885 5.80304C51.3292 6.06355 51.1495 6.43185 51.1495 6.88101C51.1495 7.50084 51.6346 8.09372 52.6137 8.66863C53.53 9.17168 54.4283 9.67474 55.3266 10.1688C56.3058 10.8335 56.7909 11.5791 56.7909 12.3966C56.7909 13.2769 56.4315 13.9776 55.7219 14.4986C55.0122 15.0107 54.1678 15.2712 53.1887 15.2712C52.9012 15.2712 52.47 15.2083 51.8951 15.0735C51.3202 14.9388 50.889 14.8759 50.6015 14.8759C50.2961 14.8759 50.0985 14.9658 49.9997 15.1454H49.6404V11.6959H50.0715C50.6195 13.762 51.6166 14.7861 53.0719 14.7861C53.6288 14.7861 54.1049 14.6513 54.5002 14.3819C54.8954 14.1124 55.0931 13.7261 55.0931 13.223C55.0931 12.5763 54.617 11.9834 53.6737 11.4534C52.7934 10.9683 51.9131 10.4832 51.0327 9.99813C50.0895 9.33338 49.6134 8.5249 49.6134 7.5727C49.6134 6.74626 49.9907 6.08151 50.7453 5.58745" fill="white"/>
<path fill-rule="evenodd" clip-rule="evenodd" d="M66.6094 5.47064C66.3848 5.21013 66.2231 5.02149 66.1153 4.89573V12.7828C66.1153 13.5015 66.2501 14.0225 66.5106 14.3279C66.798 14.6873 67.319 14.8759 68.0557 14.8849V15.2712H63.1779V14.8849C63.9594 14.8849 64.4984 14.7142 64.7858 14.3639C65.0463 14.0584 65.1811 13.5284 65.1811 12.7828V3.92556C64.7858 3.51234 64.4984 3.25183 64.3367 3.13505C64.0492 2.96437 63.6629 2.87454 63.1779 2.86556V2.49725H66.7262L74.6312 12.5493V4.85081C74.6312 4.14115 74.4875 3.65607 74.209 3.39556C73.9306 3.13505 73.4096 2.95539 72.646 2.86556V2.49725H77.5418V2.86556C76.7333 2.98234 76.1943 3.17997 75.9428 3.47641C75.6912 3.76386 75.5565 4.29386 75.5565 5.06641L75.5385 13.7889C75.9787 14.2291 76.2482 14.4806 76.347 14.5435C76.6524 14.7591 76.9938 14.8759 77.3801 14.8939V15.2622H74.1821L66.6004 5.47963L66.6094 5.47064Z" fill="white"/>
<path fill-rule="evenodd" clip-rule="evenodd" d="M83.0214 6.21627C81.7997 6.21627 80.8565 6.56661 80.1738 7.26729C79.4911 7.96797 79.1587 8.9022 79.1587 10.061C79.1587 11.148 79.5 12.0732 80.1917 12.8188C80.8744 13.5734 81.7907 13.9417 82.9316 13.9417C84.0724 13.9417 84.9977 13.5285 85.7163 12.702C86.39 11.9205 86.7224 10.9863 86.7224 9.89932C86.7224 8.81237 86.3811 7.97695 85.7073 7.26729C85.0246 6.55763 84.1353 6.20729 83.0214 6.20729M88.1328 9.89932C88.1328 11.3546 87.6477 12.6122 86.6775 13.6722C85.7073 14.7322 84.4587 15.2622 82.9316 15.2622C81.4045 15.2622 80.1468 14.7502 79.1587 13.7171C78.2245 12.729 77.7484 11.5073 77.7484 10.052C77.7484 8.52492 78.2244 7.27627 79.1677 6.32407C80.1109 5.36288 81.3955 4.88678 83.0214 4.88678C84.5216 4.88678 85.7433 5.36288 86.7044 6.32407C87.6567 7.28525 88.1328 8.47102 88.1328 9.89932Z" fill="white"/>
<path fill-rule="evenodd" clip-rule="evenodd" d="M91.2498 4.11422L93.0464 4.09625V6.57557H95.1844V7.19541H93.0464V12.8278C93.0464 13.7979 93.4057 14.283 94.1244 14.283C94.5646 14.283 94.9868 14.0585 95.391 13.6003L95.7054 13.8249C95.0586 14.7861 94.2052 15.2622 93.1632 15.2622C92.4985 15.2622 91.9954 15.0286 91.663 14.5615C91.3846 14.1752 91.2408 13.6632 91.2408 13.0254V7.19541H90.118V6.57557H91.2408V4.11422H91.2498Z" fill="white"/>
<path fill-rule="evenodd" clip-rule="evenodd" d="M98.4633 10.0071L103.054 8.74949C102.874 7.72542 102.703 7.04271 102.524 6.70136C102.182 6.02763 101.634 5.68627 100.853 5.68627C99.9994 5.68627 99.3616 6.02763 98.9214 6.71932C98.5531 7.29424 98.3735 8.03085 98.3735 8.92017C98.3735 9.28847 98.4004 9.6478 98.4633 9.99814M105.183 8.92017L98.616 10.7976C99.1281 12.7559 100.206 13.7261 101.841 13.7261C103.17 13.7261 104.302 12.9446 105.219 11.3905L105.596 11.5702C105.201 12.6571 104.617 13.5285 103.835 14.1932C102.982 14.9119 102.012 15.2712 100.916 15.2712C99.5862 15.2712 98.5442 14.7681 97.7986 13.7531C97.1428 12.8547 96.8104 11.7139 96.8104 10.3125C96.8104 8.80339 97.1877 7.54576 97.9513 6.53966C98.7957 5.43475 99.9545 4.88678 101.419 4.88678C102.578 4.88678 103.485 5.27305 104.141 6.05458C104.742 6.75525 105.084 7.71644 105.174 8.92017" fill="white"/>
</svg>
