<svg width="177" height="27" viewBox="0 0 177 27" fill="none" xmlns="http://www.w3.org/2000/svg">
<path fill-rule="evenodd" clip-rule="evenodd" d="M4.5 6.12C4.5 7.605 5.595 9 7.8 10.335C9.87 11.475 11.94 12.615 13.995 13.785C16.23 15.345 17.34 17.16 17.34 19.245C17.34 21.33 16.47 22.815 14.73 23.97C13.2 24.99 11.28 25.5 9 25.5C8.34 25.5 7.38 25.305 6.12 24.915C4.86 24.525 3.915 24.33 3.27 24.33C2.445 24.33 2.055 24.705 2.085 25.485H1.155L0 18.075H0.96C2.775 22.23 5.385 24.3 8.76 24.3C10.095 24.3 11.19 23.94 12.06 23.205C12.93 22.47 13.365 21.51 13.365 20.295C13.365 18.69 12.3 17.265 10.17 15.975C8.22 14.865 6.255 13.755 4.29 12.675C2.205 11.175 1.155 9.42 1.155 7.38C1.155 5.625 1.83 4.2 3.195 3.12C4.56 2.04 6.225 1.5 8.235 1.5C10.875 1.5 12.825 1.785 14.07 2.37C15.705 3.105 16.53 4.41 16.53 6.27C16.53 6.78 16.305 7.23 15.855 7.62C15.405 8.01 14.91 8.205 14.37 8.205C13.29 8.205 12.615 7.74 12.33 6.81C12.12 5.955 11.91 5.1 11.67 4.23C11.205 3.285 10.23 2.805 8.745 2.805C7.59 2.805 6.585 3.105 5.745 3.69C4.905 4.275 4.47 5.085 4.47 6.105" fill="black"/>
<path fill-rule="evenodd" clip-rule="evenodd" d="M27.2101 8.16003C27.7201 8.16003 28.4551 8.31003 29.4151 8.62503C30.3751 8.92503 31.1101 9.09003 31.6201 9.09003C32.1751 9.09003 32.5351 8.79003 32.7001 8.17503H33.3151L33.2851 13.8H32.6701C32.3551 12.57 31.7401 11.565 30.8101 10.77C29.8801 9.97503 28.8001 9.57003 27.5701 9.57003C25.8301 9.57003 24.4801 10.14 23.4901 11.265C22.5001 12.39 22.0051 13.86 22.0051 15.645C22.0051 17.43 22.5001 19.095 23.4901 20.535C24.5701 22.125 25.9801 22.92 27.7201 22.92C29.9101 22.92 31.7701 21.615 33.2851 19.02L33.9001 19.32C33.2551 21.135 32.3401 22.59 31.1851 23.67C29.8651 24.9 28.3201 25.515 26.5651 25.515C24.3301 25.515 22.5151 24.69 21.1501 23.055C19.8751 21.51 19.2301 19.56 19.2301 17.205C19.2301 14.73 19.9351 12.63 21.3601 10.905C22.8601 9.09003 24.8101 8.17503 27.2101 8.17503" fill="black"/>
<path fill-rule="evenodd" clip-rule="evenodd" d="M38.5502 16.71L46.2152 14.61C45.9152 12.9 45.6302 11.76 45.3302 11.19C44.7602 10.065 43.8452 9.49503 42.5402 9.49503C41.1152 9.49503 40.0502 10.065 39.3152 11.22C38.7002 12.18 38.4002 13.41 38.4002 14.895C38.4002 15.51 38.4452 16.11 38.5502 16.695M49.7702 14.895L38.8052 18.03C39.6602 21.3 41.4602 22.92 44.1902 22.92C46.4102 22.92 48.3002 21.615 49.8302 19.02L50.4602 19.32C49.8002 21.135 48.8252 22.59 47.5202 23.7C46.0952 24.9 44.4752 25.5 42.6452 25.5C40.4252 25.5 38.6852 24.66 37.4402 22.965C36.3452 21.465 35.7902 19.56 35.7902 17.22C35.7902 14.7 36.4202 12.6 37.6952 10.92C39.1052 9.07503 41.0402 8.16003 43.4852 8.16003C45.4202 8.16003 46.9352 8.80503 48.0302 10.11C49.0352 11.28 49.6052 12.885 49.7552 14.895" fill="black"/>
<path fill-rule="evenodd" clip-rule="evenodd" d="M52.3648 9.90003C53.5198 9.60003 55.2448 9.03003 57.5248 8.20503L57.5998 8.32503V11.37C59.4748 9.24003 61.2448 8.16003 62.9398 8.16003C64.1998 8.16003 65.2498 8.59503 66.1048 9.46503C66.9598 10.335 67.3948 11.4 67.3948 12.69V22.83C67.3948 24.21 68.1598 24.915 69.6748 24.945V25.515H64.2598V13.14C64.2598 12.39 64.0048 11.73 63.4798 11.175C62.9698 10.62 62.3548 10.35 61.6348 10.35C60.6448 10.35 59.7898 10.605 59.0548 11.1C58.1698 11.655 57.7198 12.405 57.7198 13.365V22.98C57.7198 23.73 58.0198 24.255 58.6048 24.525C58.9948 24.72 59.6248 24.84 60.4798 24.87V25.515H54.5848V12.165C54.5848 10.98 54.0298 10.395 52.9198 10.395C52.7248 10.395 52.5298 10.425 52.3348 10.47V9.90003H52.3648Z" fill="black"/>
<path fill-rule="evenodd" clip-rule="evenodd" d="M73.47 6.87003L76.47 6.84003V10.98H80.04V12.015H76.47V21.42C76.47 23.04 77.07 23.85 78.27 23.85C79.005 23.85 79.71 23.475 80.385 22.71L80.91 23.085C79.83 24.69 78.405 25.485 76.665 25.485C75.555 25.485 74.715 25.095 74.16 24.315C73.695 23.67 73.455 22.815 73.455 21.75V12.015H71.58V10.98H73.455V6.87003H73.47Z" fill="black"/>
<path fill-rule="evenodd" clip-rule="evenodd" d="M84.72 9.31505C85.875 8.55005 87.225 8.17505 88.77 8.17505C90.24 8.17505 91.545 8.50505 92.7 9.16505C94.005 9.94505 94.665 10.98 94.665 12.27C94.665 12.72 94.5 13.095 94.17 13.395C93.84 13.71 93.435 13.86 92.94 13.86C92.445 13.86 92.04 13.695 91.68 13.38C91.32 13.065 91.14 12.69 91.14 12.27C91.14 12.105 91.17 11.85 91.245 11.535C91.305 11.22 91.35 10.965 91.35 10.8C91.35 10.23 91.02 9.78005 90.345 9.43505C89.805 9.16505 89.19 9.03005 88.5 9.03005C87.645 9.03005 86.91 9.25505 86.31 9.69005C85.71 10.125 85.41 10.74 85.41 11.49C85.41 12.525 86.22 13.515 87.855 14.475C89.385 15.315 90.885 16.155 92.385 16.98C94.02 18.09 94.83 19.335 94.83 20.7C94.83 22.17 94.23 23.34 93.045 24.21C91.86 25.0651 90.45 25.5 88.815 25.5C88.335 25.5 87.615 25.395 86.655 25.17C85.695 24.945 84.975 24.84 84.495 24.84C83.985 24.84 83.655 24.99 83.49 25.29H82.89V19.5301H83.61C84.525 22.9801 86.19 24.69 88.62 24.69C89.55 24.69 90.345 24.465 91.005 24.015C91.665 23.565 91.995 22.92 91.995 22.08C91.995 21 91.2 20.01 89.625 19.125C88.155 18.315 86.685 17.505 85.215 16.695C83.64 15.585 82.845 14.235 82.845 12.645C82.845 11.265 83.475 10.155 84.735 9.33005" fill="black"/>
<path fill-rule="evenodd" clip-rule="evenodd" d="M111.225 9.13498C110.85 8.69998 110.58 8.38498 110.4 8.17498V21.345C110.4 22.545 110.625 23.415 111.06 23.925C111.54 24.525 112.41 24.84 113.64 24.855V25.5H105.495V24.855C106.8 24.855 107.7 24.57 108.18 23.985C108.615 23.475 108.84 22.59 108.84 21.345V6.55498C108.18 5.86498 107.7 5.42998 107.43 5.23498C106.95 4.94998 106.305 4.79998 105.495 4.78498V4.16998H111.42L124.62 20.955V8.09998C124.62 6.91498 124.38 6.10498 123.915 5.66998C123.45 5.23498 122.58 4.93498 121.305 4.78498V4.16998H129.48V4.78498C128.13 4.97998 127.23 5.30998 126.81 5.80498C126.39 6.28498 126.165 7.16998 126.165 8.45998L126.135 23.025C126.87 23.76 127.32 24.18 127.485 24.285C127.995 24.645 128.565 24.84 129.21 24.87V25.485H123.87L111.21 9.14998L111.225 9.13498Z" fill="black"/>
<path fill-rule="evenodd" clip-rule="evenodd" d="M138.63 10.38C136.59 10.38 135.015 10.965 133.875 12.135C132.735 13.305 132.18 14.865 132.18 16.8C132.18 18.615 132.75 20.16 133.905 21.405C135.045 22.665 136.575 23.28 138.48 23.28C140.385 23.28 141.93 22.59 143.13 21.21C144.255 19.905 144.81 18.345 144.81 16.53C144.81 14.715 144.24 13.32 143.115 12.135C141.975 10.95 140.49 10.365 138.63 10.365M147.165 16.53C147.165 18.96 146.355 21.06 144.735 22.83C143.115 24.6 141.03 25.485 138.48 25.485C135.93 25.485 133.83 24.63 132.18 22.905C130.62 21.255 129.825 19.215 129.825 16.785C129.825 14.235 130.62 12.15 132.195 10.56C133.77 8.95503 135.915 8.16003 138.63 8.16003C141.135 8.16003 143.175 8.95503 144.78 10.56C146.37 12.165 147.165 14.145 147.165 16.53Z" fill="black"/>
<path fill-rule="evenodd" clip-rule="evenodd" d="M152.37 6.87003L155.37 6.84003V10.98H158.94V12.015H155.37V21.42C155.37 23.04 155.97 23.85 157.17 23.85C157.905 23.85 158.61 23.475 159.285 22.71L159.81 23.085C158.73 24.69 157.305 25.485 155.565 25.485C154.455 25.485 153.615 25.095 153.06 24.315C152.595 23.67 152.355 22.815 152.355 21.75V12.015H150.48V10.98H152.355V6.87003H152.37Z" fill="black"/>
<path fill-rule="evenodd" clip-rule="evenodd" d="M164.415 16.71L172.08 14.61C171.78 12.9 171.495 11.76 171.195 11.19C170.625 10.065 169.71 9.49503 168.405 9.49503C166.98 9.49503 165.915 10.065 165.18 11.22C164.565 12.18 164.265 13.41 164.265 14.895C164.265 15.51 164.31 16.11 164.415 16.695M175.635 14.895L164.67 18.03C165.525 21.3 167.325 22.92 170.055 22.92C172.275 22.92 174.165 21.615 175.695 19.02L176.325 19.32C175.665 21.135 174.69 22.59 173.385 23.7C171.96 24.9 170.34 25.5 168.51 25.5C166.29 25.5 164.55 24.66 163.305 22.965C162.21 21.465 161.655 19.56 161.655 17.22C161.655 14.7 162.285 12.6 163.56 10.92C164.97 9.07503 166.905 8.16003 169.35 8.16003C171.285 8.16003 172.8 8.80503 173.895 10.11C174.9 11.28 175.47 12.885 175.62 14.895" fill="black"/>
</svg>
